<svg width="1766" height="2280" viewBox="0 0 1766 2280" fill="none" xmlns="http://www.w3.org/2000/svg">
<path fill-rule="evenodd" clip-rule="evenodd" d="M1751.22 1401.56C1741.26 1381.65 1717.6 1350.51 1710.13 1334.33C1703.97 1320.97 1696.96 1294.87 1689.08 1267.26C1695.18 1257.35 1698.06 1245.79 1697.32 1234.17C1695.7 1207.68 1676.59 1184.77 1660.72 1173.23L1653.68 1168.16C1644 1161.21 1618.27 1142.74 1612.74 1136.2C1602.06 1122.5 1583.99 1103.06 1558.31 1087.95C1535.66 1074.65 1509.27 1071.79 1488.52 1072.26C1470 950.006 1377.03 864.444 1295.87 817.247C1297.86 808.947 1298.84 800.724 1298.84 792.799C1298.84 771.347 1292.03 752.23 1281.86 740.375C1279.78 737.95 1277.27 731.595 1277.23 728.806C1277.38 728.223 1278.55 723.152 1278.55 723.152C1280.02 717.224 1282.17 708.522 1282.17 698.6C1282.17 686.538 1278.88 672.725 1267.37 659.963C1224.61 669.82 1185.07 679.405 1157.08 701.181C1166.43 754.953 1145.38 819.245 1069.4 805.224C1044.82 847.311 923.258 870.683 842.599 786.522C804.027 792.371 773.626 794.706 746.74 739.766C714.419 731.193 640.686 728.832 569.054 721.063C565.346 720.658 561.641 720.226 557.939 719.766C560.429 736.446 561.311 747.781 557.018 757.067C551.182 769.713 541.143 791.515 541.649 815.146C529.315 814.64 516.578 814.147 503.647 813.668C485.01 812.954 465.737 812.228 462.196 811.904C441.146 809.803 428.371 816.482 420.732 820.464L418.514 821.605C412.833 824.432 388.839 836.922 374.974 846.157C368.943 850.177 364.261 850.333 364.209 850.333L321.876 851.578C309.425 851.578 296.144 853.64 281.281 857.881L256.586 866.727C248.117 869.93 233.915 875.274 230.089 876.26C222.255 878.218 198.352 884.184 186.459 907.984L186.9 907.141C183.722 912.77 159.144 950.55 142.867 975.543C120.65 1009.71 111.351 1024.05 108.913 1028.3C106.319 1032.83 103.569 1038.32 101.39 1044.83C70.8074 1054.63 50.7432 1074.8 45.2699 1102.14C38.3441 1136.76 32.1056 1144.64 30.8605 1145.93C5.84186 1166.52 -4.67663 1193.72 2.05468 1220.62C3.64996 1227.03 14.5705 1265.82 50.9637 1303.59C40.0172 1345.97 35.4389 1398.58 47.9547 1433.87C61.6507 1472.48 86.5527 1539.7 95.2684 1564.6C103.984 1589.51 108.964 1609.43 130.131 1624.37C151.298 1639.3 214.759 1671.6 264.602 1650.52C296.974 1636.81 303.2 1634.33 313.16 1630.59C323.121 1626.86 333.082 1620.62 338.062 1610.67C343.043 1600.72 353.004 1578.3 355.494 1564.6C371.68 1564.6 405.285 1550.91 402.807 1523.52C400.317 1496.12 405.298 1478.69 411.523 1460.02C417.749 1441.34 418.994 1420.17 400.317 1390.28C384.066 1364.27 354.586 1315.61 326.688 1302.64C336.61 1287.8 344.91 1276.8 348.801 1273.43L349.683 1272.78C359.878 1265.4 380.746 1250.27 380.746 1221.83C380.746 1215.65 379.734 1208.84 377.439 1201.37C392.963 1186.78 404.597 1167.68 411.666 1144.37C462.728 1168.39 518.835 1180 585.681 1181.62C614.733 1193.41 632.463 1211.55 638.118 1235.76C639.441 1241.38 640.076 1247.23 640.076 1253.24C640.076 1281.05 626.341 1312.11 601.893 1337.94C600.004 1339.94 598.216 1342.03 596.537 1344.21C578.081 1340.6 556.24 1337.62 537.758 1351.48C518.329 1366.06 511.844 1382.43 507.979 1392.22L506.41 1395.93L494.854 1406.17C483.596 1415.89 472.961 1425.08 464.103 1437.89C451.807 1455.64 445.452 1475.02 445.452 1493.67C445.452 1502.83 446.97 1511.8 450.069 1520.34C454.557 1532.65 464.401 1551.1 480.12 1571.84L473.947 1582.63C461.431 1604.52 451.366 1633.86 445.245 1664.13L430.446 1668.31C395.622 1678.15 358.412 1710.03 358.412 1769.99C358.412 1811.3 356.518 1837.98 352.64 1851.56C348.36 1866.54 334.522 1918.24 335.974 1954.64L336.195 1960.53C337.544 1999.73 340.086 2072.69 391.796 2095.88C420.226 2108.62 462.131 2125.25 486.631 2130.16C486.631 2130.16 504.867 2134.26 516.851 2136.21C533.608 2138.93 597.458 2157.84 619.921 2168.48C618.741 2154.29 614.007 2129.46 603.372 2109.36C619.636 2112.39 652.475 2123.32 677.144 2134.57C693.823 2185.18 713.342 2218.12 808.463 2230.15C841.276 2234.28 940.365 2258.33 974.67 2279.61C973.325 2265.48 970.637 2251.5 966.642 2237.88C974.696 2239.42 982.776 2241.12 990.779 2243.21L1049.52 2258.53L1040.02 2225.78C1050.26 2226.58 1060.84 2227.26 1072.55 2227.75L1120.48 2229.72L1109.94 2193.44C1116.86 2193.9 1124.03 2194.3 1131.68 2194.62L1179.61 2196.61L1166.23 2150.56C1157.06 2119.01 1134.6 2085.22 1110.63 2063.69C1112.02 2058.86 1112.23 2054.58 1111.83 2050.22C1109.09 2020.1 1065.02 1989.35 1027.5 1979.12L1003.89 1973.68C972.906 1967.17 940.871 1960.44 917.539 1931.58C903.207 1913.85 896.035 1887.81 895.905 1855.09C990.766 1835.24 1048 1787.63 1066.13 1713.3C1094.28 1705.47 1131.03 1681.8 1131.99 1646.9C1133.8 1637.04 1151.1 1608.38 1159.29 1600.15L1162.84 1596.73C1176.23 1584.03 1189.99 1568.39 1193.24 1540.83C1198.53 1539.22 1203.7 1537.54 1208.49 1535.67C1280.06 1507.67 1354.07 1456.4 1408.53 1381.51C1395.41 1441.47 1421.37 1457.58 1432.5 1468.69C1391.41 1501.08 1434.98 1567.07 1451.17 1582C1467.35 1596.92 1483.54 1593.2 1495.98 1583.25C1502.2 1601.92 1535.82 1621.85 1544.54 1626.82C1553.25 1631.81 1574.81 1637.58 1595.58 1626.82C1665.32 1590.71 1737.54 1519.74 1757.45 1484.89C1775.14 1454.08 1761.21 1421.48 1751.22 1401.56Z" fill="black"/>
<path fill-rule="evenodd" clip-rule="evenodd" d="M1281.89 849.205C1248.75 895.779 1122.71 959.176 935.709 959.176C742.33 959.176 618.313 906.505 575.526 875.391C564.605 867.44 556.914 858.893 551.622 850.1C507.59 848.258 465.386 846.909 458.85 846.261C446.399 845.016 441.418 848.751 433.948 852.486C426.477 856.222 405.31 867.415 394.105 874.898C382.899 882.369 371.68 884.859 364.222 884.859C356.765 884.859 333.095 886.104 321.889 886.104C310.683 886.104 299.477 888.594 290.774 891.084C282.059 893.574 248.428 907.271 238.48 909.748C228.52 912.238 221.049 915.973 217.314 923.457C213.578 930.927 143.853 1036.76 138.873 1045.48C133.892 1054.19 129.042 1065.36 133.892 1084.07C151.324 1151.31 191.167 1197.37 280.814 1199.87C355.533 1201.94 376.686 1153.8 382.912 1117.69C371.706 1111.47 356.765 1102.75 345.559 1092.79C345.559 1084.07 341.823 1069.13 340.578 1056.68C420.265 1125.16 497.461 1146.33 593.333 1147.57C697.921 1186.17 692.941 1292.01 626.951 1361.73C619.597 1369.51 616.99 1376.67 618.235 1382.9C619.48 1389.12 619.48 1397.84 620.725 1416.53C621.97 1435.19 634.486 1452.09 674.264 1482.52C695.431 1498.7 709.568 1503.37 737.764 1512.4C768.892 1522.37 798.774 1527.34 836.127 1528.59C861.016 1529.42 1060.24 1528.59 1100.09 1523.61C1122.36 1520.82 1167.32 1514.89 1195.97 1503.69C1326.02 1452.79 1457.44 1325.64 1457.44 1116.46C1457.4 984.389 1359.73 895.533 1281.89 849.205Z" fill="#B01842"/>
<path fill-rule="evenodd" clip-rule="evenodd" d="M1243.22 722.996C1245.73 709.3 1253.21 694.359 1240.74 681.908C1236.54 677.766 1232.25 673.705 1227.88 669.729C1200.67 677.2 1176.18 686.37 1157.08 701.233C1166.43 755.006 1145.38 819.297 1069.4 805.277C1044.82 847.363 923.258 870.735 842.599 786.574C804.027 792.423 773.626 794.758 746.74 739.818C718.051 732.218 656.755 729.494 593.268 723.541C595.305 739.961 595.499 756.017 588.327 771.568C573.386 803.941 568.405 827.597 595.798 847.506C623.786 867.869 736.493 924.702 935.709 924.702C1132.43 924.702 1240.76 853.732 1255.7 826.339C1270.64 798.947 1263.17 771.555 1255.7 762.839C1248.23 754.124 1240.74 736.692 1243.22 722.996ZM1103.72 1552.91C1061.52 1558.17 860.874 1558.96 835.103 1558.09C795.376 1556.76 762.563 1551.34 728.725 1540.52C700.515 1531.51 681.865 1525.54 656.289 1505.97C616.757 1475.75 593.424 1451.73 591.206 1418.47L590.246 1402.22C589.922 1396.04 589.637 1390.71 589.222 1388.68C588.628 1385.73 588.333 1382.73 588.34 1379.72C588.34 1379.11 588.392 1378.46 588.418 1377.83C575.694 1375.39 565.15 1374.13 558.432 1379.16C538.51 1394.09 542.219 1409.94 531.039 1420.25C514.853 1435.18 501.52 1444.49 492.441 1457.6C481.236 1473.79 476.554 1492.35 482.481 1508.65C492.441 1536.04 573.373 1671.76 773.833 1682.97C897.02 1689.84 1032.81 1682.97 1049 1681.72C1065.19 1680.46 1097.56 1663.04 1097.56 1645.61C1097.56 1628.17 1122.46 1588.34 1134.9 1575.89C1143.28 1567.51 1153.34 1560.22 1157.49 1544.6C1139.67 1547.98 1121.73 1550.75 1103.72 1552.91ZM1640.42 1201.1C1626.71 1191.14 1594.34 1168.74 1585.62 1157.54C1576.91 1146.34 1561.97 1130.14 1540.81 1117.69C1526.81 1109.47 1508.92 1106.55 1491.65 1106.67C1491.75 1109.91 1491.85 1113.15 1491.85 1116.43C1491.85 1178.04 1481.06 1233.06 1462.67 1281.67C1535.68 1201.05 1628.62 1243.03 1655.36 1254.65C1674.04 1237.22 1654.1 1211.06 1640.42 1201.1ZM151.22 1328.07C191.75 1297.18 250.62 1296.42 288.596 1298.09C303.109 1275.16 319.101 1252.47 328.102 1245.92C340.721 1236.75 350.137 1230.71 344.716 1212.28C326.584 1220.97 304.951 1225.16 280.113 1224.46C188.43 1221.92 132.79 1178.01 110.028 1090.24C109.09 1086.6 108.38 1082.9 107.901 1079.17C95.0997 1084.09 82.2856 1092.97 79.0821 1108.95C74.1017 1133.85 66.6311 1161.24 52.935 1172.45C39.226 1183.64 31.7684 1197.35 35.4907 1212.28C39.239 1227.23 64.1279 1295.69 151.22 1328.07Z" fill="#B01842"/>
<path fill-rule="evenodd" clip-rule="evenodd" d="M371.083 1408.63L368.956 1405.22C358.191 1387.96 329.593 1342.08 312.149 1333.98C294.341 1326.25 274.134 1329.38 256.91 1328.55C239.687 1327.72 231.464 1332.65 218.325 1336.76C205.187 1340.86 172.361 1354.83 149.378 1365.51C149.378 1369.6 153.477 1383.56 157.575 1386.84C186.303 1363.04 228.17 1358.11 256.08 1358.94C223.241 1369.62 185.499 1403.27 170.713 1426.24C196.16 1399.99 237.196 1388.49 263.46 1386.84C228.17 1405.74 220.777 1436.1 221.594 1458.26C204.357 1459.91 185.486 1480.43 169.066 1499.3C183.022 1502.58 202.723 1514.89 214.201 1519.82C208.468 1523.93 203.54 1532.96 201.893 1537.89C200.246 1542.81 198.611 1548.55 202.71 1554.31C216.082 1573.02 235.549 1586.33 264.277 1591.24C283.317 1594.51 298.751 1592.89 304.497 1590.44C309.568 1588.26 320.19 1566.08 321.552 1558.53L323.977 1545.25C311.114 1537.52 300.097 1527.07 291.695 1514.63C282.007 1524.03 276.482 1534.73 267.572 1547.77C265.924 1532.98 271.67 1514.93 273.317 1500.97C258.545 1496.88 251.165 1489.48 235.562 1478C248.519 1479.86 264.705 1482.16 277.169 1483.91C271.372 1464.56 271.099 1445.74 274.134 1432.86C282.357 1442.7 297.117 1446 302.045 1449.28C306.961 1452.56 308.608 1464.87 307.791 1470.63C305.638 1485.61 307.791 1499.37 317.635 1512.49C327.479 1525.63 346.363 1530.56 355.338 1530.26C359.06 1530.08 369.345 1521.52 367.711 1510C367.659 1485.27 372.873 1467.03 378.8 1449.22C382.043 1439.5 383.885 1429.11 371.083 1408.63ZM1581.31 1470.96C1594.86 1472.19 1629.33 1488.2 1637.94 1501.74C1639.19 1478.34 1634.25 1466.03 1615.78 1453.73C1630.55 1448.81 1652.72 1440.18 1665.02 1438.95C1651.5 1426.64 1630.55 1415.56 1601.01 1416.79C1614.53 1399.55 1625.62 1386.01 1636.7 1381.08C1614.53 1378.63 1594.85 1381.08 1587.45 1397.09C1585 1383.53 1583.76 1372.46 1589.9 1357.68C1564.07 1363.84 1565.29 1402.01 1568.98 1411.86C1572.68 1421.72 1575.14 1430.33 1571.44 1437.72C1567.74 1445.1 1548.05 1493.11 1546.82 1502.97C1545.6 1512.82 1538.21 1520.21 1530.81 1521.44C1523.45 1522.67 1502.49 1523.89 1491.42 1502.97C1480.35 1482.04 1480.35 1442.64 1500.04 1422.94C1476.65 1399.54 1463.79 1364.51 1477.87 1323.21C1496.34 1269.04 1561.06 1257.95 1605.92 1266.57C1637.94 1272.73 1656.41 1296.12 1657.65 1309.67C1658.86 1323.21 1665.01 1340.45 1671.17 1351.54C1677.33 1362.63 1705.65 1413.09 1715.5 1422.95C1725.36 1432.81 1732.75 1464.81 1719.2 1477.12C1705.65 1489.43 1667.48 1520.22 1652.7 1537.45C1637.93 1554.7 1628.09 1554.69 1612.07 1548.52C1596.06 1542.37 1573.93 1531.28 1561.58 1525.12C1566.53 1511.6 1576.39 1483.28 1581.31 1470.96Z" fill="white"/>
<path fill-rule="evenodd" clip-rule="evenodd" d="M1533.3 1436.49C1533.3 1436.49 1534.52 1424.31 1534.52 1418.02C1534.52 1405.71 1525.91 1399.55 1519.75 1381.08C1513.21 1361.48 1516.24 1318 1539.97 1284.33C1518.69 1291.06 1499.89 1304.5 1491.87 1327.97C1477.3 1370.73 1497.29 1399.28 1510.52 1412.49L1520.96 1422.95L1510.5 1433.4C1496.29 1447.6 1495.61 1479.29 1504.47 1496.07C1510.72 1507.87 1522.1 1507.91 1528.36 1506.89C1529.27 1506.66 1531.73 1504.62 1532.16 1501.16C1533.78 1488.29 1553.39 1441.62 1557.67 1432.35C1547.84 1433.13 1537.7 1435.02 1533.3 1436.49Z" fill="black"/>
<path fill-rule="evenodd" clip-rule="evenodd" d="M1538.21 1551C1548.06 1559.61 1555.43 1567 1565.29 1571.92C1575.14 1576.85 1580.06 1580.54 1602.23 1574.38C1593.61 1583 1573.93 1592.85 1564.08 1587.92C1554.24 1583 1527.14 1564.53 1520.97 1558.38C1525.9 1555.93 1532.06 1554.71 1538.21 1551ZM526.254 2106.93C530.43 2093.89 538.069 2080.98 545.228 2071.15C556.097 2082.23 571.466 2099.98 580.921 2120.07C563.188 2113.86 544.872 2109.46 526.254 2106.93ZM610.557 1930.95L600.311 1951.44L566.538 1919.13C563.023 1915.76 559.664 1912.34 556.408 1908.85C512.648 1913.88 468.382 1928.69 443.74 1953.35C453.571 1911.83 460.445 1884.44 494.076 1853.45L490.535 1848.02C478.81 1830.03 471.223 1805.98 467.449 1775.58L440.342 1794.07L438.837 1730.68C438.617 1721.33 438.967 1711.55 439.836 1701.58C415.064 1708.57 392.898 1729.93 392.898 1770.07C392.898 1817.36 390.538 1844.56 385.804 1861.12C381.083 1877.67 369.255 1923.79 370.435 1953.35C371.615 1982.91 371.615 2049.13 405.907 2064.5C440.199 2079.88 475.671 2092.88 493.414 2096.42C502.869 2066.87 526.513 2034.94 541.895 2025.47C560.805 2037.3 569.093 2045.58 577.367 2055.03C587.86 2035.11 618.78 2007.78 645.433 1996.07C636.445 1971.98 624.824 1950.22 610.557 1930.95ZM663.837 2070.43C662.047 2057.59 659.661 2045.26 656.781 2033.36C638.844 2040.71 617.12 2056.39 608.119 2070.4C626.497 2074.48 645.77 2082.99 667.43 2093.62C666.101 2085.91 664.903 2078.17 663.837 2070.43ZM919.056 1731.19C908.498 1763.4 901.625 1792.95 898.252 1819.42C959.275 1805.02 1009.64 1775.79 1029.17 1717.36C1005.67 1718.49 967.407 1719.87 922.597 1720.33L919.056 1731.19ZM852.884 2201.65C870.614 2206.39 910.82 2214.67 928.55 2226.49C912.013 2193.38 890.717 2165.01 870.614 2157.91C864.713 2167.37 856.438 2187.48 852.884 2201.65ZM951 2200.23C966.837 2202.7 983.165 2205.67 999.507 2209.94C988.872 2173.29 960.468 2140.18 940.378 2133.08C936.863 2138.72 931.26 2151.49 926.773 2165.87C936.143 2176.35 944.273 2187.88 951 2200.23ZM1029.35 2190.4C1044.21 2191.73 1059.1 2192.73 1074.01 2193.38C1063.37 2156.73 1029.07 2116.52 1008.95 2109.43C1004.36 2117.22 1000.9 2126.45 998.509 2136.48C1011.76 2152.58 1022.18 2170.81 1029.35 2190.4Z" fill="white"/>
<path fill-rule="evenodd" clip-rule="evenodd" d="M856.023 2116.21C861.431 2118.41 879.005 2125.51 899.095 2140.53C903.22 2129.7 907.604 2120.5 911.157 2114.82L925.8 2091.38L951.869 2100.58C958.095 2102.78 964.437 2106.13 970.637 2110.38C973.114 2103.85 975.928 2097.62 979.249 2091.97L993.658 2067.48L1020.43 2076.94C1023.06 2077.86 1025.75 2079.11 1028.46 2080.5C1031.17 2072.72 1034.49 2065.44 1038.36 2058.86L1052.77 2034.36L1053.1 2034.49C1047.47 2025.59 1036.3 2017.35 1018.42 2012.48C983.866 2003.05 929.017 2000.75 890.704 1953.35C852.171 1905.68 852.767 1822.78 886.268 1720.45C850.516 1720.42 814.769 1719.52 779.06 1717.75C763.717 1772.94 754.69 1884.87 810.304 2007.74C772.472 1975.81 712.162 1930.88 686.145 1829.19L676.69 1848.11C657.767 1817.36 641.218 1786.61 642.398 1747.59L619.934 1761.78C616.873 1738.06 616.316 1708.4 619.169 1681.11C569.313 1658.56 531.312 1628.62 503.894 1599.8C485.243 1632.44 472.299 1687.21 473.311 1729.85L499.315 1712.11C498.135 1754.68 501.689 1801.98 519.419 1829.17L537.161 1807.88C546.616 1839.81 563.179 1868.17 590.376 1894.19L602.204 1870.55C651.866 1915.49 686.158 1980.52 697.986 2065.65C709.763 2150.45 720.398 2170.75 816.283 2196.61C827.528 2154.27 841.146 2126.92 856.023 2116.21ZM1097.01 2158C1108.47 2158.92 1120.04 2159.73 1133.13 2160.28C1122.5 2123.63 1088.19 2083.42 1068.08 2076.33C1063.59 2083.98 1060.13 2092.99 1057.74 2102.8C1073.71 2118.97 1086.97 2137.61 1097.01 2158Z" fill="white"/>
<path fill-rule="evenodd" clip-rule="evenodd" d="M202.009 311.958C133.036 221.948 131.246 129.409 180.96 92.1858C215.005 66.7002 267.987 59.0221 317.726 74.6507C358.632 87.5037 448.993 114.053 518.796 85.1692C688.285 15.0287 922.091 19.7108 1020.28 48.9316C1101 72.9517 1141.62 55.3776 1160.57 44.2496C1241.89 -3.50511 1334.89 -14.0106 1380.34 20.878C1417.2 49.191 1414.23 110.888 1382.67 179.861C1417.73 190.38 1464.5 212.584 1491.4 228.965L1476.2 248.835C1513.59 269.885 1555.69 302.607 1583.73 333.008C1569.7 364.577 1541.66 413.667 1521.77 437.039L1546.33 452.239C1521.77 488.477 1479.7 534.079 1411.92 576.153L1427.09 597.202C1341.78 665.008 1220.19 652.142 1157.09 701.233C1166.44 755.006 1145.39 819.297 1069.41 805.276C1044.84 847.363 923.271 870.735 842.612 786.574C804.04 792.423 773.639 794.758 746.753 739.818C714.432 731.245 640.699 728.885 569.067 721.116C513.764 715.111 460.64 702.763 422.936 701.233L429.953 676.681C348.127 656.812 254.602 618.239 216.03 590.186L237.08 564.467C183.307 530.564 136.551 488.477 111.986 451.072C124.852 438.206 151.726 411.333 163.424 403.149L137.705 373.928C161.09 348.196 183.307 329.494 202.009 311.958Z" fill="black"/>
<path fill-rule="evenodd" clip-rule="evenodd" d="M1142.06 666.461C1176.26 643.051 1218.66 633.297 1263.39 623.012C1301.44 614.258 1340.44 605.244 1374.46 587.384L1358.76 565.647L1392.43 544.753C1438.25 516.297 1470.19 486.985 1492.03 462.057L1465.82 445.832L1493.64 413.11C1506.94 397.481 1525.41 366.872 1539.04 340.544C1515.28 318.482 1485.43 296.408 1458.11 281.025L1421.05 260.183L1435.72 241.001C1414.72 230.845 1391.18 220.988 1372.09 215.256L1331.46 203.077L1349.11 164.505C1373.63 110.927 1377.15 64.9881 1357.88 50.2026C1329.83 28.6857 1253.61 32.4859 1179.28 76.1291C1135.28 101.978 1078.26 104.74 1009.77 84.352C916.501 56.5967 693.045 53.0689 532.933 119.318C456.982 150.744 367.426 128.994 306.676 109.902C269.141 98.1129 228.494 102.769 203.112 121.77C190.454 131.251 185.94 146.672 184.384 157.955C179.235 195.243 196.796 244.425 231.347 289.508C231.347 289.508 251.891 316.316 252.151 316.057L227.288 338.91L211.983 352.982C203.899 360.27 195.921 367.676 188.054 375.199L191.18 378.74L218.455 409.724L184.643 433.394C180.791 436.092 172.918 443.173 161.233 454.444C184.669 480.993 218.572 509.112 256.807 533.21L292.162 555.492L271.904 580.277C313.251 601.236 376.544 625.684 438.721 640.781L476.074 649.86L470.562 669.172C481.184 670.728 492.182 672.518 503.453 674.347C526.033 678.017 549.392 681.817 573.101 684.385C599.066 687.2 625.057 689.275 650.18 691.272C696.274 694.943 732.681 697.848 756.273 704.112C764.34 690.714 776.025 676.681 795.895 671.999C780.708 693.049 771.032 720.091 791.213 740.972C825.116 776.042 867.203 736.29 880.056 737.457C877.721 745.641 873.039 757.327 868.37 763.163C916.293 808.765 999.3 820.451 1044.88 780.712C1022.66 757.327 985.267 740.972 918.628 739.792C944.36 728.106 980.585 715.24 1018 730.441C1055.42 745.641 1071.77 759.662 1079.96 765.511C1102.18 767.859 1122.03 761.996 1125.53 740.959C1129.05 719.909 1124.37 698.872 1102.18 686.019C1108 650.949 1113.85 624.063 1084.61 596.009C1109.11 606.541 1138.74 628.2 1142.06 666.461Z" fill="white"/>
<path fill-rule="evenodd" clip-rule="evenodd" d="M440.472 257.018C400.888 314.306 389.202 388.687 422.924 452.239C464.907 531.329 571.674 597.669 717.519 640.444C653.215 645.113 436.957 613.557 345.779 555.102L359.813 529.383C316.571 510.681 270.97 477.945 246.418 445.223C263.953 425.34 288.505 398.467 299.023 386.768L274.472 369.233C306.04 338.845 383.184 286.239 440.472 257.018ZM235.497 175.88C257.196 201.404 284.004 229.484 345.274 244.801C321.02 255.021 294.212 276.707 282.733 288.198C257.196 258.847 236.768 220.547 235.497 175.88ZM226.561 135.038C238.052 128.657 281.449 126.102 309.529 136.309C337.621 146.529 444.842 186.087 523.984 137.593L536.746 151.626C566.097 133.754 603.125 115.881 626.095 112.055L633.747 129.928C658.001 114.61 688.635 104.403 712.889 101.848C780.539 158.007 827.762 261.402 844.363 383.941C825.22 395.432 789.488 397.987 757.569 363.526C737.946 342.334 695.029 302.257 659.284 278.003C623.553 253.75 548.237 216.734 472.922 220.56C416.763 223.414 277.623 212.895 226.561 135.038Z" fill="black"/>
<path fill-rule="evenodd" clip-rule="evenodd" d="M544.398 396.703C541.843 355.861 555.89 298.418 612.049 298.418C668.208 298.418 700.126 334.163 720.541 354.577C740.955 374.991 781.81 414.575 817.555 414.575C853.299 414.575 866.049 399.245 872.43 386.483C869.888 420.943 857.112 464.34 808.618 464.34C772.887 464.34 730.761 419.672 703.952 392.851C677.144 366.055 641.399 353.28 609.494 353.28C577.588 353.306 550.78 377.559 544.398 396.703Z" fill="black"/>
<path fill-rule="evenodd" clip-rule="evenodd" d="M702.396 405.276C695.807 415.716 688.985 428.271 684.822 440.112C677.092 420.826 675.224 410.269 676.418 398C664.814 400.681 654.604 407.54 647.734 417.268C640.863 426.996 637.814 438.912 639.167 450.744C640.521 462.576 646.181 473.496 655.07 481.422C663.96 489.347 675.455 493.724 687.364 493.716C694.462 493.712 701.472 492.15 707.9 489.14C714.329 486.131 720.018 481.747 724.567 476.299C729.116 470.85 732.414 464.47 734.229 457.608C736.043 450.746 736.329 443.569 735.067 436.585C723.29 426.222 712.227 415.159 702.396 405.276ZM1138.71 378.843C1139.91 391.1 1138 401.657 1130.31 420.956C1125.95 408.609 1118.7 395.47 1111.84 384.757C1101.28 397.559 1090.39 410.087 1079.57 420.749C1078.54 430.044 1080.21 439.44 1084.4 447.805C1088.58 456.169 1095.1 463.146 1103.15 467.894C1111.21 472.642 1120.47 474.959 1129.82 474.567C1139.16 474.174 1148.19 471.088 1155.82 465.681C1163.46 460.274 1169.36 452.776 1172.83 444.09C1176.3 435.404 1177.18 425.9 1175.37 416.724C1173.56 407.548 1169.14 399.09 1162.64 392.369C1156.13 385.648 1147.82 380.951 1138.71 378.843Z" fill="black"/>
<path fill-rule="evenodd" clip-rule="evenodd" d="M965.617 371.178C983.503 394.148 993.71 395.432 1009.04 395.432C1032.01 395.432 1047.31 378.843 1074.15 343.099C1100.94 307.354 1143.04 279.274 1167.32 279.274C1191.56 279.274 1220.93 299.702 1209.45 354.59C1203.07 334.162 1181.36 321.4 1171.15 321.4C1149.44 321.4 1141.79 332.891 1122.64 355.874C1105.64 376.275 1057.53 441.396 1028.18 441.396C987.329 441.384 965.617 406.91 965.617 371.178Z" fill="black"/>
<path fill-rule="evenodd" clip-rule="evenodd" d="M857.125 91.628C889.031 95.454 917.123 104.39 936.254 113.326L937.551 92.899C969.469 101.835 1009.04 112.042 1034.55 128.631V112.042C1061.37 118.424 1118.8 129.915 1167.31 106.932C1215.82 83.9499 1282.18 54.5993 1323.02 58.4254C1306.44 96.7251 1286.01 132.457 1215.82 164.362C1145.6 196.268 1114.98 228.187 1093.27 270.299C1071.58 312.425 1037.11 394.109 988.6 376.249C977.121 280.546 940.106 170.769 857.125 91.628ZM1255.39 174.596C1283.45 156.723 1312.82 133.754 1330.7 99.2801C1335.8 131.186 1324.32 166.93 1302.61 191.184C1288.56 186.087 1273.25 179.706 1255.39 174.596ZM1231.12 214.166C1279.63 223.102 1339.61 240.975 1368.98 255.021L1348.56 276.707C1399.64 300.96 1453.23 331.595 1481.32 354.577C1459.61 386.483 1432.81 420.956 1407.28 441.371L1430.25 461.798C1381.74 502.64 1333.25 533.274 1305.15 543.482C1277.06 553.702 1204.31 584.323 1178.78 594.544C1345.99 492.433 1400.9 318.832 1231.12 214.166ZM695.016 543.495C738.413 547.334 761.395 535.842 772.874 535.842L761.382 521.796C807.334 521.796 827.762 506.479 845.634 505.208L829.033 491.162C845.634 489.891 853.299 480.954 864.777 474.573C876.269 468.192 910.742 456.714 938.809 457.985C966.901 459.269 1014.12 468.192 1040.92 486.064L1032 497.556C1060.06 502.666 1051.13 515.428 1095.81 510.318L1086.87 525.635C1118.79 524.364 1143.03 525.635 1160.92 525.635C1143.03 547.347 1126.44 561.38 1100.93 566.49C1075.39 571.587 1054.95 583.078 1048.6 593.285C1042.22 603.506 1024.33 643.063 983.49 641.792C942.635 640.521 906.942 623.687 886.476 607.332C873.714 597.112 846.905 588.175 822.652 588.175C798.411 588.175 728.206 592.002 695.016 543.495Z" fill="black"/>
<path fill-rule="evenodd" clip-rule="evenodd" d="M919.665 597.112C901.806 575.413 918.394 534.559 970.74 538.398C1023.09 542.237 1042.23 576.697 1015.42 597.112C1016.69 586.892 1011.57 570.303 997.536 565.206C994.981 594.57 961.791 593.299 950.313 577.968C942.635 567.761 936.254 567.761 932.428 571.587C928.615 575.413 922.22 583.078 919.665 597.112Z" fill="white"/>
<path fill-rule="evenodd" clip-rule="evenodd" d="M857.125 677.524C916.955 648.796 1016.12 657.914 1062.63 696.68C1085.6 715.824 1065.29 736.108 1049.87 723.476C1021.78 700.506 946.033 686.758 886.489 714.553C848.189 732.412 825.22 692.841 857.125 677.524Z" fill="black"/>
<path fill-rule="evenodd" clip-rule="evenodd" d="M324.029 1104.01C325.05 1102.7 325.796 1101.19 326.221 1099.59C326.647 1097.98 326.743 1096.31 326.504 1094.66C326.264 1093.02 325.695 1091.44 324.83 1090.02C323.965 1088.6 322.822 1087.37 321.47 1086.41C320.117 1085.44 318.584 1084.76 316.961 1084.4C315.338 1084.04 313.66 1084.02 312.027 1084.33C310.394 1084.64 308.841 1085.27 307.46 1086.19C306.078 1087.12 304.899 1088.31 303.991 1089.7L300.035 1095.23C288.245 1111.69 263.733 1145.93 256.067 1158.18C254.492 1160.95 254.046 1164.21 254.824 1167.3C255.602 1170.38 257.544 1173.05 260.242 1174.74C262.941 1176.42 266.187 1177 269.301 1176.35C272.415 1175.69 275.155 1173.86 276.949 1171.23C284.199 1159.62 309.334 1124.54 320.06 1109.56L324.029 1104.01ZM752.537 1476.38C802.017 1401.41 899.757 1150.75 746.441 940.512C733.547 937.809 720.728 934.755 707.999 931.355C879.174 1134.83 780.785 1388.88 731.993 1462.83C731.005 1464.18 730.302 1465.71 729.925 1467.34C729.548 1468.96 729.505 1470.65 729.8 1472.29C730.094 1473.94 730.72 1475.5 731.638 1476.9C732.557 1478.29 733.749 1479.48 735.143 1480.4C736.536 1481.32 738.102 1481.95 739.746 1482.24C741.389 1482.54 743.075 1482.5 744.702 1482.12C746.328 1481.75 747.862 1481.04 749.209 1480.06C750.556 1479.07 751.688 1477.82 752.537 1476.38ZM1124.39 935.078C1115.47 937.529 1106.26 939.851 1096.7 942.017C1227.26 1067.4 1195.47 1327.23 1131.46 1466.16C1130.79 1467.63 1130.41 1469.22 1130.34 1470.84C1130.28 1472.45 1130.54 1474.06 1131.1 1475.58C1131.66 1477.1 1132.51 1478.49 1133.61 1479.68C1134.71 1480.86 1136.03 1481.82 1137.5 1482.5C1138.97 1483.18 1140.56 1483.56 1142.17 1483.62C1143.79 1483.68 1145.4 1483.42 1146.92 1482.86C1148.43 1482.3 1149.83 1481.45 1151.01 1480.35C1152.2 1479.25 1153.16 1477.93 1153.83 1476.46C1219.06 1334.86 1251.19 1072.28 1124.39 935.078Z" fill="white"/>
<path fill-rule="evenodd" clip-rule="evenodd" d="M627.483 1126.84C627.623 1128.44 628.079 1130 628.824 1131.43C629.569 1132.86 630.59 1134.13 631.826 1135.16C633.063 1136.19 634.491 1136.97 636.029 1137.45C637.568 1137.93 639.185 1138.1 640.79 1137.95C644.052 1137.65 647.062 1136.07 649.162 1133.55C651.261 1131.04 652.28 1127.79 651.996 1124.53L650.115 1102.37C646.678 1059.57 644.175 1028.65 617.807 988.319C610.128 976.461 602.785 964.39 595.785 952.12C583.411 930.837 571.622 910.578 548.224 882.771C567.809 878.646 579.572 879.736 586.693 882.797C582.872 880.464 579.143 877.985 575.513 875.365C568.146 870.122 561.595 863.82 556.071 856.663C529.652 860.022 495.152 871.798 451.301 892.265C429.447 902.459 385.506 908.075 327.57 908.075C301.825 908.075 286.482 917.491 274.147 925.039L263.201 931.213C257.274 934.533 254.174 942.522 257.481 948.45C260.788 954.377 267.26 957.01 273.201 953.728L287.026 946.063C297.713 939.514 308.777 932.73 327.57 932.73C371.057 932.73 429.616 929.592 461.716 914.612C485.827 903.367 505.645 895.442 521.974 890.034C538.964 909.346 549.988 924.559 559.184 938.995C549.327 941.731 533.18 946.478 517.421 951.108L477.02 962.82C461.781 966.971 440.601 969.175 415.79 969.175L370.98 968.345C306.481 966.932 278.544 966.517 272.565 967.723C256.055 971.017 190.064 1042.16 189.429 1042.87L188.845 1043.52C174.721 1059.39 171.894 1063.09 166.33 1085.38C165.9 1086.96 165.79 1088.61 166.006 1090.24C166.223 1091.86 166.761 1093.43 167.589 1094.84C168.417 1096.25 169.519 1097.48 170.83 1098.47C172.141 1099.45 173.635 1100.16 175.223 1100.55C176.812 1100.95 178.464 1101.03 180.083 1100.78C181.701 1100.53 183.254 1099.96 184.649 1099.1C186.045 1098.24 187.255 1097.12 188.209 1095.79C189.164 1094.46 189.843 1092.95 190.207 1091.35C194.487 1074.23 194.733 1073.96 207.236 1059.87L207.82 1059.22C223.552 1041.52 268.233 997.916 278.311 991.821C286.961 991.133 338.879 992.274 370.435 992.962L415.79 993.792C434.596 993.792 461.612 992.534 483.505 986.568L524.373 974.726C543.983 968.955 564.255 962.989 571.466 961.186C571.79 961.108 572.063 960.953 572.374 960.862L574.488 964.493C581.709 977.129 589.278 989.563 597.185 1001.78C599.857 1005.87 602.23 1009.85 604.37 1013.75C581.375 1020.95 505.256 1030.24 454.803 1030.24C422.898 1030.24 378.839 1024.3 349.696 1020.38C321.409 1016.57 315.469 1015.92 311.007 1017.03C297 1020.54 234.097 1091.42 233.474 1092.13C219.882 1107.65 214.214 1119.74 209 1135.37C208.489 1136.9 208.285 1138.52 208.399 1140.14C208.514 1141.75 208.946 1143.32 209.669 1144.77C210.393 1146.22 211.394 1147.51 212.617 1148.57C213.839 1149.62 215.258 1150.43 216.792 1150.94C218.327 1151.45 219.947 1151.66 221.56 1151.54C223.173 1151.42 224.747 1150.99 226.192 1150.27C227.638 1149.54 228.927 1148.54 229.985 1147.32C231.043 1146.09 231.85 1144.67 232.359 1143.14C236.769 1129.9 241.023 1120.88 251.995 1108.33C264.835 1093.66 306.364 1049.96 317.492 1041.26C322.499 1041.56 334.924 1043.22 346.402 1044.78C376.206 1048.8 421.25 1054.85 454.803 1054.85C502.363 1054.85 587.108 1045.85 614.474 1036.32C620.181 1052.74 622.463 1069.03 624.201 1088.13L591.284 1089.46C573.632 1090.33 553.633 1091.32 543.024 1091.32C526.448 1091.32 517.473 1088.9 497.824 1083.61L490.211 1081.56C488.651 1081.14 487.023 1081.03 485.422 1081.25C483.821 1081.46 482.277 1081.98 480.879 1082.79C479.48 1083.6 478.255 1084.67 477.273 1085.96C476.29 1087.24 475.57 1088.7 475.153 1090.26C474.309 1093.42 474.753 1096.78 476.387 1099.61C478.021 1102.44 480.712 1104.51 483.868 1105.36L491.417 1107.38C511.909 1112.91 523.193 1115.95 543.024 1115.95C554.242 1115.95 573.684 1114.99 592.49 1114.06L626.263 1112.7L627.483 1126.84Z" fill="white"/>
<path fill-rule="evenodd" clip-rule="evenodd" d="M348.723 1119.69C346.2 1119.06 343.529 1119.43 341.281 1120.74C339.032 1122.05 337.384 1124.19 336.687 1126.69L336.726 1126.55C335.922 1128.94 330.605 1136.55 327.09 1141.61C321.941 1148.97 317.077 1155.95 315.041 1161.05C314.495 1162.26 314.2 1163.57 314.173 1164.9C314.147 1166.23 314.39 1167.55 314.888 1168.79C315.385 1170.02 316.127 1171.14 317.069 1172.08C318.011 1173.02 319.133 1173.76 320.368 1174.25C321.602 1174.74 322.924 1174.98 324.254 1174.95C325.583 1174.92 326.893 1174.62 328.104 1174.07C329.315 1173.52 330.402 1172.73 331.3 1171.75C332.197 1170.77 332.888 1169.62 333.328 1168.36C334.522 1165.37 339.359 1158.43 343.25 1152.87C350.202 1142.89 354.534 1136.52 355.792 1131.48C356.416 1128.98 356.022 1126.33 354.697 1124.12C353.371 1121.91 351.223 1120.32 348.723 1119.69ZM682.604 1435.61C778.684 1271.82 759.113 1131.48 725.793 1042.58C705.924 989.576 677.753 945.388 652.67 913.846C627.612 904.534 607.431 894.923 592.283 886.143C612.282 901.278 669.479 962.547 702.733 1051.22C748.477 1173.23 734.561 1298.37 661.373 1423.16C659.908 1425.96 659.577 1429.22 660.45 1432.26C661.322 1435.3 663.331 1437.89 666.06 1439.49C668.789 1441.09 672.029 1441.58 675.109 1440.86C678.188 1440.13 680.872 1438.25 682.604 1435.61ZM1066.26 948.125C1057.7 949.63 1048.94 950.991 1039.97 952.211C1140.72 1113.4 1117.58 1356.79 1060.34 1474.4C1059.58 1475.86 1059.12 1477.46 1059 1479.09C1058.87 1480.73 1059.07 1482.38 1059.58 1483.94C1060.1 1485.5 1060.93 1486.94 1062.01 1488.18C1063.09 1489.41 1064.41 1490.42 1065.89 1491.14C1067.37 1491.86 1068.97 1492.27 1070.61 1492.36C1072.26 1492.45 1073.9 1492.21 1075.44 1491.66C1076.99 1491.1 1078.41 1490.24 1079.62 1489.13C1080.83 1488.02 1081.81 1486.67 1082.49 1485.18C1141.19 1364.53 1165.38 1116.93 1066.26 948.125ZM1238.22 887.219C1231.33 891.577 1223.83 895.909 1215.65 900.15C1373.01 1036.18 1343.78 1228.3 1290.63 1366.79C1289.5 1369.83 1289.62 1373.19 1290.96 1376.14C1292.3 1379.1 1294.75 1381.4 1297.77 1382.57C1300.8 1383.73 1304.16 1383.65 1307.13 1382.34C1310.1 1381.04 1312.44 1378.62 1313.63 1375.61C1358.96 1257.47 1407.55 1040.15 1238.22 887.219Z" fill="white"/>
<path fill-rule="evenodd" clip-rule="evenodd" d="M1221.01 1457.2C1222.49 1457.83 1224.09 1458.16 1225.71 1458.17C1227.33 1458.18 1228.93 1457.87 1230.42 1457.26C1231.92 1456.65 1233.28 1455.75 1234.43 1454.61C1235.58 1453.47 1236.49 1452.12 1237.11 1450.63C1274.91 1360.67 1292.16 1253.99 1284.48 1157.95C1276.4 1056.81 1242.25 973.183 1185.43 914.196C1177.14 917.653 1168.75 920.871 1160.28 923.846C1285.83 1044.8 1282.75 1278.41 1214.42 1441.09C1213.16 1444.1 1213.15 1447.49 1214.38 1450.51C1215.62 1453.53 1218 1455.94 1221.01 1457.2ZM831.899 953.832C820.984 952.685 810.092 951.331 799.228 949.772C945.657 1152.93 859.123 1385.82 814.312 1477.77C812.881 1480.71 812.675 1484.09 813.739 1487.18C814.803 1490.27 817.051 1492.81 819.986 1494.24C822.922 1495.67 826.306 1495.87 829.394 1494.81C832.482 1493.75 835.021 1491.5 836.452 1488.56C881.898 1395.3 968.302 1163.05 831.899 953.832ZM1368.37 1286.25C1367.46 1289.37 1367.83 1292.73 1369.39 1295.58C1370.95 1298.43 1373.57 1300.56 1376.69 1301.48C1379.8 1302.41 1383.16 1302.07 1386.03 1300.53C1388.89 1298.99 1391.03 1296.39 1391.99 1293.28C1432.57 1156.8 1454.89 985.284 1273.69 859.062C1268.5 864.561 1262.13 870.19 1254.66 875.871C1427.26 992.728 1409.27 1148.62 1368.37 1286.25Z" fill="white"/>
<path fill-rule="evenodd" clip-rule="evenodd" d="M902.675 1494.01C905.549 1495.56 908.922 1495.91 912.052 1494.97C915.182 1494.04 917.813 1491.9 919.367 1489.03C989.43 1359.38 1023.33 1154.68 916.501 958.981C906.895 958.808 897.292 958.492 887.695 958.034C998.457 1148.92 966.175 1350.64 897.708 1477.33C896.937 1478.75 896.455 1480.31 896.287 1481.92C896.12 1483.53 896.272 1485.15 896.733 1486.7C897.194 1488.25 897.957 1489.69 898.976 1490.95C899.996 1492.2 901.253 1493.24 902.675 1494.01Z" fill="white"/>
<path fill-rule="evenodd" clip-rule="evenodd" d="M980.507 1495.6C983.351 1497.21 986.713 1497.61 989.857 1496.74C993.001 1495.86 995.67 1493.78 997.277 1490.94C1056.17 1386.63 1102.4 1126.89 998.6 956.685C989.43 957.425 980.105 958.021 970.559 958.436C1078.65 1119.62 1033.41 1376.87 975.851 1478.84C975.054 1480.24 974.542 1481.79 974.345 1483.4C974.147 1485 974.269 1486.63 974.701 1488.19C975.133 1489.74 975.869 1491.2 976.865 1492.47C977.861 1493.75 979.099 1494.81 980.507 1495.6ZM861.561 890.682C864.163 890.971 866.774 890.219 868.824 888.592C870.874 886.964 872.198 884.592 872.508 881.992L875.426 857.376C877.047 844.121 878.668 830.58 880.03 816.716C873.57 812.767 867.362 808.417 861.444 803.694C859.904 820.825 858.044 837.927 855.867 854.989L852.923 879.826C852.775 881.107 852.881 882.404 853.236 883.643C853.59 884.882 854.186 886.039 854.988 887.048C855.791 888.056 856.784 888.897 857.912 889.52C859.04 890.144 860.28 890.539 861.561 890.682ZM918.68 834.458L918.576 835.95C917.188 852.784 915.632 871.863 915.632 884.301C915.632 886.915 916.671 889.422 918.519 891.271C920.368 893.12 922.875 894.158 925.489 894.158C928.103 894.158 930.61 893.12 932.459 891.271C934.307 889.422 935.346 886.915 935.346 884.301C935.346 873.121 936.734 855.482 938.031 839.516C931.624 838.193 925.139 836.533 918.68 834.458ZM795.324 881.824C800.512 883.445 806.102 880.319 807.724 875.118L810.797 865.223C816.634 847.156 823.612 825.509 819.461 789.272C812.787 789.75 806.08 789.449 799.475 788.377C803.911 822.267 797.685 841.721 792.056 859.179L788.788 869.71C787.166 874.898 790.137 880.216 795.324 881.824ZM616.432 834.056C618.859 835.028 621.573 834.996 623.976 833.967C626.379 832.938 628.275 830.997 629.247 828.57L631.309 823.434C642.93 794.524 653.98 767.015 653.046 728.56L633.267 726.978C634.538 762.463 624.5 787.547 613.021 816.093L610.946 821.268C609.983 823.692 610.019 826.398 611.048 828.795C612.076 831.192 614.012 833.084 616.432 834.056ZM676.236 849.477C678.702 850.339 681.41 850.187 683.764 849.054C686.119 847.92 687.926 845.899 688.791 843.433C700.049 811.242 706.261 775.109 707.675 733.463C701.132 732.742 694.582 732.09 688.026 731.504C686.768 771.685 680.905 806.314 670.192 836.935C669.334 839.4 669.488 842.105 670.621 844.456C671.754 846.807 673.774 848.613 676.236 849.477ZM734.691 868.361C737.219 869.02 739.906 868.649 742.16 867.328C744.414 866.008 746.052 863.846 746.714 861.319C754.353 832.02 762.187 801.982 764.885 768.131C758.646 761.036 752.615 751.789 746.753 739.805L746.026 739.636C746.662 782.916 737.466 818.674 727.648 856.351C727.322 857.602 727.245 858.905 727.423 860.186C727.6 861.467 728.028 862.7 728.682 863.815C729.336 864.93 730.203 865.906 731.234 866.686C732.265 867.466 733.44 868.035 734.691 868.361ZM1108.54 865.21C1109.78 867.507 1111.88 869.219 1114.38 869.968C1116.88 870.717 1119.58 870.443 1121.88 869.204C1124.17 867.966 1125.89 865.865 1126.64 863.365C1127.38 860.865 1127.11 858.169 1125.87 855.871C1118.25 841.708 1113.51 826.676 1110.17 804.537C1103.8 806.255 1097.25 807.145 1090.66 807.183C1094.33 831.903 1099.72 848.829 1108.54 865.21ZM1162.6 839.309C1163.76 841.604 1165.77 843.354 1168.21 844.188C1170.64 845.021 1173.3 844.871 1175.62 843.769C1177.95 842.668 1179.75 840.702 1180.64 838.291C1181.54 835.881 1181.45 833.216 1180.41 830.866C1171.85 812.812 1161.25 788.195 1153.2 762.204C1150.3 770.68 1145.89 778.56 1140.18 785.458C1146.76 803.769 1154.24 821.741 1162.6 839.309ZM975.851 843.252L977.848 857.596L981.856 888.581C982.543 893.976 987.536 898.153 992.906 897.465C998.327 896.765 1002.18 892.2 1001.47 886.804L997.367 854.86C996.758 850.631 996.148 846.261 995.565 842.007C989.196 842.759 982.621 843.2 975.851 843.252ZM1182.17 686.019C1187.47 744.733 1198.57 785.588 1217.36 816.469C1218.77 818.583 1220.95 820.069 1223.43 820.617C1225.91 821.165 1228.51 820.733 1230.68 819.41C1232.85 818.088 1234.43 815.977 1235.08 813.52C1235.74 811.062 1235.41 808.448 1234.18 806.223C1216.4 776.976 1206.06 736.952 1201.28 678.095C1194.64 680.494 1188.26 683.101 1182.17 686.019ZM1034.47 832.124C1036.93 849.801 1040.8 868.037 1047.04 883.004C1048.1 885.33 1050.03 887.152 1052.41 888.085C1054.79 889.018 1057.44 888.989 1059.8 888.004C1062.16 887.019 1064.05 885.156 1065.06 882.807C1066.07 880.458 1066.13 877.808 1065.23 875.417C1059.78 862.356 1055.63 843.874 1053.05 822.046C1047.23 826.06 1041.01 829.438 1034.47 832.124ZM1100.33 1570.04C1116.22 1568.12 1132.05 1565.75 1147.8 1562.96C1151.85 1558.13 1155.43 1552.4 1157.51 1544.59C1139.14 1548.18 1120.32 1550.82 1103.73 1552.91C1061.53 1558.17 860.887 1558.96 835.116 1558.09C795.389 1556.76 762.576 1551.34 728.738 1540.52C700.529 1531.51 681.878 1525.54 656.302 1505.97C616.77 1475.75 593.437 1451.73 591.219 1418.47L590.26 1402.22C590.149 1400.06 590.028 1397.91 589.896 1395.75C588.223 1395.06 586.414 1394.75 584.605 1394.86C581.344 1395.05 578.294 1396.53 576.125 1398.97C573.955 1401.41 572.844 1404.62 573.036 1407.88L573.995 1424.13C574.54 1432.51 576.265 1440.28 578.95 1447.69C578.613 1448.07 578.263 1448.45 577.977 1448.87C575.967 1451.88 565.889 1458.42 557.796 1463.67C544.969 1471.97 529.016 1482.32 516.436 1494.89C514.738 1496.77 513.826 1499.22 513.889 1501.75C513.953 1504.28 514.987 1506.69 516.777 1508.48C518.567 1510.27 520.976 1511.3 523.505 1511.36C526.035 1511.42 528.491 1510.51 530.365 1508.81C541.467 1497.72 556.46 1488 568.509 1480.2C576.732 1474.87 583.424 1470.52 588.288 1466.35C593.697 1474.74 600.545 1482.84 608.806 1490.96C608.155 1491.82 607.651 1492.79 607.315 1493.82C600.869 1514.42 570.714 1536.97 555.669 1545.99C553.488 1547.37 551.932 1549.54 551.334 1552.05C550.736 1554.55 551.144 1557.2 552.47 1559.41C553.797 1561.62 555.936 1563.22 558.43 1563.87C560.924 1564.52 563.573 1564.17 565.812 1562.89C570.649 1559.97 611.245 1534.89 624.15 1504.87C630.245 1510.01 636.808 1515.27 643.89 1520.69C648.766 1524.41 653.422 1527.67 657.949 1530.58C657.824 1531.18 657.758 1531.79 657.754 1532.4C657.754 1552.78 629.13 1578.55 616.912 1589.54C615.876 1590.39 615.023 1591.43 614.403 1592.62C613.783 1593.8 613.411 1595.1 613.308 1596.43C613.205 1597.76 613.373 1599.1 613.804 1600.36C614.234 1601.63 614.917 1602.79 615.811 1603.79C616.705 1604.78 617.792 1605.58 619.005 1606.14C620.218 1606.7 621.532 1607.01 622.867 1607.04C624.203 1607.08 625.531 1606.84 626.773 1606.35C628.015 1605.86 629.143 1605.12 630.09 1604.17C643.954 1591.71 671.23 1567.09 676.496 1541C690.269 1547.65 703.888 1552.01 720.048 1557.19C722.992 1558.13 725.923 1558.98 728.854 1559.83L722.123 1570.87C711.514 1588.2 698.298 1609.75 689.478 1626.13C688.866 1627.27 688.484 1628.52 688.354 1629.81C688.224 1631.09 688.349 1632.39 688.721 1633.63C689.093 1634.87 689.705 1636.02 690.523 1637.02C691.34 1638.02 692.347 1638.85 693.486 1639.47C694.624 1640.08 695.873 1640.46 697.159 1640.59C698.445 1640.72 699.744 1640.6 700.982 1640.22C702.22 1639.85 703.373 1639.24 704.375 1638.42C705.376 1637.6 706.207 1636.6 706.819 1635.46C715.379 1619.57 728.439 1598.29 738.919 1581.15L748.698 1565.1C763.834 1568.66 779.203 1571.23 795.415 1572.94C780.591 1598.97 768.114 1631.22 766.389 1648.45C766.189 1651.02 767.002 1653.57 768.654 1655.54C770.306 1657.52 772.667 1658.77 775.23 1659.03C777.793 1659.29 780.356 1658.53 782.368 1656.92C784.381 1655.31 785.684 1652.98 785.999 1650.43C787.53 1635.06 800.889 1601.97 815.181 1578.17C815.82 1577.1 816.247 1575.91 816.439 1574.68C820.81 1574.95 825.246 1575.16 829.772 1575.32C835.336 1575.51 849.045 1575.62 867.527 1575.62C852.884 1607.2 842.807 1641.11 841.069 1655C840.909 1656.29 841.003 1657.59 841.346 1658.84C841.689 1660.08 842.275 1661.25 843.069 1662.27C843.863 1663.29 844.851 1664.15 845.975 1664.78C847.1 1665.42 848.339 1665.84 849.622 1666C850.906 1666.16 852.208 1666.06 853.455 1665.72C854.702 1665.37 855.869 1664.79 856.89 1663.99C857.911 1663.2 858.765 1662.21 859.404 1661.09C860.043 1659.96 860.454 1658.73 860.614 1657.44C862.132 1645.28 872.949 1608.48 889.42 1575.58C904.327 1575.53 919.234 1575.43 934.14 1575.29C920.029 1606.72 910.509 1636.09 908.914 1653.64C908.796 1654.93 908.933 1656.23 909.318 1657.46C909.702 1658.7 910.325 1659.84 911.153 1660.84C911.98 1661.83 912.995 1662.65 914.14 1663.25C915.284 1663.85 916.536 1664.22 917.824 1664.34C919.112 1664.46 920.41 1664.32 921.644 1663.94C922.879 1663.55 924.026 1662.93 925.019 1662.1C926.013 1661.28 926.834 1660.26 927.435 1659.12C928.036 1657.97 928.406 1656.72 928.524 1655.43C930.015 1638.93 941.014 1606.74 955.929 1575.04C970.844 1574.86 985.902 1574.63 1000.49 1574.33L995.655 1587.59C986.693 1611.89 978.198 1634.85 976.759 1652.01C976.652 1653.3 976.801 1654.6 977.196 1655.83C977.591 1657.06 978.226 1658.2 979.063 1659.19C979.9 1660.18 980.923 1660.99 982.074 1661.58C983.226 1662.18 984.482 1662.54 985.773 1662.64C987.061 1662.75 988.357 1662.6 989.589 1662.21C990.82 1661.82 991.961 1661.18 992.947 1660.35C993.932 1659.51 994.743 1658.49 995.333 1657.34C995.922 1656.19 996.279 1654.93 996.382 1653.64C997.601 1639.17 1006.01 1616.42 1014.14 1594.42L1021.31 1574.68C1021.41 1574.41 1021.47 1574.14 1021.52 1573.88C1038.74 1573.45 1054.68 1572.94 1068.05 1572.32C1054.34 1592.2 1046.63 1615.73 1044.62 1643.65C1044.53 1646.2 1045.43 1648.69 1047.14 1650.58C1048.84 1652.48 1051.22 1653.64 1053.76 1653.82C1056.3 1654.01 1058.82 1653.2 1060.78 1651.56C1062.74 1649.93 1063.99 1647.6 1064.27 1645.07C1066.44 1614.38 1076.52 1590.02 1094.8 1570.63C1096.83 1570.43 1098.71 1570.25 1100.33 1570.04ZM1597.28 1208.65C1598.88 1208.88 1600.51 1208.8 1602.07 1208.41C1603.63 1208.01 1605.1 1207.31 1606.39 1206.34C1607.69 1205.38 1608.77 1204.17 1609.6 1202.78C1610.42 1201.39 1610.96 1199.86 1611.19 1198.26C1611.66 1195.02 1610.82 1191.73 1608.87 1189.1C1606.91 1186.48 1603.99 1184.74 1600.75 1184.27L1592.82 1183.09C1589.55 1182.61 1586.18 1182.1 1582.77 1181.63C1582.3 1181.06 1581.77 1180.54 1581.18 1180.1C1568.66 1170.69 1547.43 1146.24 1539.5 1133.55C1538.85 1132.4 1537.96 1131.38 1536.9 1130.58C1535.85 1129.77 1534.64 1129.19 1533.35 1128.86C1532.06 1128.53 1530.71 1128.47 1529.4 1128.68C1528.08 1128.89 1526.83 1129.36 1525.7 1130.06C1524.57 1130.77 1523.6 1131.7 1522.84 1132.79C1522.08 1133.88 1521.55 1135.12 1521.28 1136.42C1521.01 1137.72 1521 1139.07 1521.27 1140.37C1521.53 1141.67 1522.06 1142.91 1522.81 1144.01C1528.53 1153.16 1539.81 1167.12 1551.06 1178.92C1543.96 1178.84 1536.86 1179.29 1529.83 1180.26C1528.97 1178.48 1527.59 1177.01 1525.87 1176.04C1516.68 1170.8 1507.81 1159.65 1496.59 1145.55L1493.05 1141.1C1492.55 1140.49 1491.98 1139.95 1491.35 1139.48C1490.92 1149.08 1490.13 1158.46 1489.19 1167.73C1494.99 1174.8 1500.44 1180.98 1506.17 1185.95C1499.02 1188.46 1492.11 1191.61 1485.52 1195.35C1483.66 1206.88 1481.37 1218.32 1478.64 1229.67C1479.58 1229.25 1480.46 1228.71 1481.27 1228.08C1519.47 1196.95 1556.48 1202.53 1589.15 1207.46L1597.28 1208.65ZM337.271 1231.74C339.003 1231.04 340.556 1229.97 341.811 1228.59C343.066 1227.21 343.991 1225.56 344.516 1223.77C345.04 1221.99 345.151 1220.1 344.84 1218.26C344.529 1216.42 343.803 1214.68 342.719 1213.16C324.989 1221.23 304.056 1225.15 280.114 1224.47C195.123 1222.11 141.168 1184.15 115.605 1108.7C113.454 1108.27 111.226 1108.42 109.151 1109.13C107.077 1109.85 105.231 1111.1 103.804 1112.77C102.377 1114.44 101.422 1116.46 101.036 1118.62C100.65 1120.78 100.849 1123 101.611 1125.06C104.049 1131.58 106.812 1137.74 109.717 1143.71C99.315 1155.67 75.8657 1180.3 65.7233 1188.97C63.8752 1190.71 62.7675 1193.09 62.6306 1195.62C62.4937 1198.16 63.3381 1200.65 64.9883 1202.57C66.6385 1204.5 68.9674 1205.71 71.4909 1205.97C74.0144 1206.22 76.5382 1205.49 78.5375 1203.93C88.4853 1195.41 107.94 1175.1 119.742 1162.05C125.034 1170.48 130.858 1178.29 137.265 1185.39C136.391 1186.08 135.638 1186.91 135.034 1187.85C130.494 1195.11 121.351 1206.57 113.283 1216.7C106.708 1224.95 101.027 1232.09 97.8754 1236.81C96.5173 1238.98 96.0596 1241.6 96.5993 1244.1C97.139 1246.61 98.6336 1248.81 100.766 1250.23C102.899 1251.65 105.502 1252.19 108.022 1251.72C110.543 1251.26 112.784 1249.83 114.269 1247.74C116.954 1243.71 122.661 1236.57 128.692 1228.99C136.863 1218.75 146.045 1207.21 151.272 1199.01C158.673 1205.44 166.663 1211.16 175.136 1216.09C172.335 1221.57 164.06 1233.41 156.745 1243.91L141.83 1265.88C138.769 1270.38 140.157 1276.21 144.644 1279.26C149.132 1282.3 155.474 1280.83 158.535 1276.31L172.892 1255.17C181.362 1243.04 189.338 1231.61 192.749 1224.93C201.841 1228.87 211.503 1232.09 221.698 1234.64C216.747 1243.17 211.917 1251.77 207.21 1260.44L199.312 1274.69C196.666 1279.45 198.326 1285.55 203.086 1288.19C207.846 1290.84 213.786 1289.22 216.419 1284.47L224.486 1269.94C230.608 1258.82 238.818 1243.9 242.32 1238.84C252.618 1240.4 263.383 1241.37 274.64 1241.7C268.739 1251.86 261.022 1264.12 257.663 1268.6C256.227 1270.69 255.657 1273.26 256.07 1275.77C256.484 1278.28 257.85 1280.53 259.883 1282.05C261.916 1283.58 264.459 1284.26 266.981 1283.95C269.504 1283.64 271.811 1282.38 273.421 1280.41C278.609 1273.5 291.812 1252.1 297.558 1240.94C311.164 1239.77 324.535 1236.67 337.271 1231.74Z" fill="white"/>
<path fill-rule="evenodd" clip-rule="evenodd" d="M1326.97 1083.27C1326.97 1054.72 1314.5 999.291 1301.35 969.201L1295.83 956.582L1282.05 955.946C1234 953.741 1187.67 955.583 1144.33 961.393L1137.52 962.314L1137.44 962.042L1130.75 963.222L1117.75 964.973L1117.93 965.492C1078.7 972.418 1041.31 982.871 1006.81 996.58L1006.51 996.71L1006.36 995.906L993.386 1001.92L989.106 1003.62L989.183 1003.9L980.468 1007.93C938.276 1027.42 899.14 1052.93 864.285 1083.67L855.141 1091.75L856.386 1099.43C853.935 1101.53 851.432 1103.58 849.019 1105.72L839.876 1113.8L841.821 1125.84C845.595 1149.23 847.476 1171.37 847.476 1192.63C847.476 1210.45 846.153 1227.64 843.507 1244.41L838.086 1278.74L868.046 1270.15L868.707 1271.64C875.503 1287.97 889.07 1359.62 890.743 1438.34L891.858 1490.27L928.563 1453.54C962.985 1419.14 1002.87 1394.99 1047.15 1381.77L1056.6 1378.94L1060.83 1370.04C1062.29 1366.93 1063.92 1363.33 1065.54 1359.58L1066.22 1375.76L1090.33 1372.48C1137.22 1366.11 1175.96 1372.07 1194.55 1374.92L1207.78 1376.96L1215.75 1366.22C1218.44 1362.53 1220.92 1358.69 1223.2 1354.73L1231 1344.17C1263.7 1300.03 1297.02 1169.75 1306.94 1124.46L1311.7 1123.5V1105.34L1311.68 1104.53L1326.98 1101.47V1083.27H1326.97Z" fill="#B01842"/>
<path fill-rule="evenodd" clip-rule="evenodd" d="M1265.8 1000.15C1217.44 997.929 1172.99 999.926 1132.03 1005.43C1142.93 1037.94 1149.28 1088.08 1152.12 1120.6C1160.6 1120.6 1169.1 1130.78 1167.4 1146.04C1165.7 1161.32 1157.22 1200.35 1143.64 1244.45C1136.86 1213.91 1123.3 1164.72 1119.91 1152.84C1116.51 1140.97 1119.91 1130.79 1128.39 1124C1128.39 1103.39 1117.25 1043.87 1106.7 1009.34C1067.74 1016.2 1032.15 1026.36 999.728 1039.24C1006.82 1069.92 1013 1123.15 1013 1157.92C1024.88 1161.32 1029.97 1173.2 1026.58 1191.85C1020.24 1226.27 1009.99 1259.86 996.044 1291.95C994.319 1263.11 979.067 1210.53 977.381 1198.65C975.695 1186.77 984.164 1173.2 990.96 1166.42C989.521 1147.72 981.972 1089.96 974.541 1050.08C934.275 1068.63 896.934 1092.96 863.701 1122.3C872.183 1174.89 870.484 1215.6 865.4 1247.86C877.28 1244.46 880.665 1242.76 889.148 1263.12C897.643 1283.47 911.222 1358.13 912.921 1437.88C954.567 1396.22 999.105 1372.99 1040.82 1360.52C1054.8 1331.07 1074.54 1275.74 1077.47 1246.16C1081.83 1279.54 1086.16 1322.78 1087.35 1350.55C1136.17 1343.9 1176.89 1349.81 1197.94 1353.04C1231.86 1307.23 1270.87 1144.37 1272.6 1129.09C1274.27 1113.83 1281.05 1107.03 1289.55 1105.34C1289.54 1079.89 1277.66 1027.29 1265.8 1000.15Z" fill="black"/>
<path fill-rule="evenodd" clip-rule="evenodd" d="M1281.04 978.099C1232.7 975.881 1188.26 977.878 1147.3 983.377C1158.19 1015.89 1164.55 1066.03 1167.39 1098.55C1175.87 1098.55 1184.37 1108.73 1182.67 1124C1180.97 1139.26 1172.49 1178.29 1158.91 1222.38C1152.12 1191.85 1138.57 1142.66 1135.17 1130.78C1131.75 1118.9 1135.17 1108.73 1143.63 1101.93C1143.63 1081.32 1132.51 1021.81 1121.97 987.281C1083.01 994.142 1047.42 1004.3 1014.99 1017.18C1022.09 1047.86 1028.26 1101.1 1028.26 1135.86C1040.14 1139.26 1045.24 1151.14 1041.84 1169.79C1035.5 1204.21 1025.26 1237.8 1011.3 1269.89C1009.6 1241.05 994.319 1188.46 992.646 1176.59C990.947 1164.71 999.429 1151.14 1006.23 1144.36C1004.79 1125.66 997.238 1067.9 989.78 1028.02C949.527 1046.58 912.197 1070.91 878.966 1100.25C887.449 1152.85 885.749 1193.55 880.665 1225.81C892.546 1222.41 895.931 1220.7 904.426 1241.07C912.908 1261.42 926.488 1336.08 928.187 1415.83C969.832 1374.17 1014.37 1350.93 1056.06 1338.49C1070.06 1309.04 1089.78 1253.69 1092.73 1224.12C1097.09 1257.48 1101.42 1300.73 1102.62 1328.49C1151.41 1321.85 1192.16 1327.76 1213.18 1330.99C1247.13 1285.18 1286.14 1122.32 1287.84 1107.04C1289.54 1091.77 1296.32 1084.98 1304.82 1083.28C1304.8 1057.84 1292.92 1005.23 1281.04 978.099Z" fill="white"/>
</svg>
